<svg xmlns="http://www.w3.org/2000/svg" xmlns:xlink="http://www.w3.org/1999/xlink" width="187" height="68" viewBox="0 0 187 68"><defs><path id="f" d="M191.57 31.9v10.05h3.95v-1.02h-2.84V31.9z"/><path id="g" d="M199.9 36.35v1h-2.44v3.58h2.99v1.02h-4.1V31.9h4.1v1.02h-2.99v3.43z"/><path id="h" d="M205.77 34.3v.28h-1.05v-.33c0-.9-.34-1.43-1.14-1.43-.8 0-1.13.53-1.13 1.42 0 2.25 3.33 2.46 3.33 5.3 0 1.51-.72 2.5-2.24 2.5-1.52 0-2.23-.99-2.23-2.5v-.58h1.04v.63c0 .9.37 1.43 1.16 1.43.8 0 1.16-.53 1.16-1.43 0-2.24-3.31-2.45-3.31-5.28 0-1.55.7-2.51 2.2-2.51 1.5 0 2.2.99 2.2 2.5"/><path id="i" d="M216.91 31.14c4.72 0 6.58 2.27 6.58 6.78v1.44c0 3.24-.9 5.25-3.55 6.08 2.94.84 4.07 3.2 4.07 6.57v2.58c0 4.6-2.2 7.18-6.92 7.18h-6.97V31.14zm-.82 13c2.68 0 4.06-.88 4.06-4.08v-1.8c0-2.7-.9-4.02-3.33-4.02h-3.33v9.9zm1 14.52c2.46 0 3.59-1.31 3.59-4.16v-2.7c0-3.41-1.34-4.55-4.24-4.55h-2.95v11.42z"/><path id="a" d="M226.83 30.83h13.89v31.24h-13.9z"/><path id="k" d="M226.83 38.53c0-4.68 2.29-7.7 6.92-7.7 4.67 0 6.97 3.02 6.97 7.7v15.84c0 4.64-2.3 7.7-6.97 7.7-4.63 0-6.92-3.06-6.92-7.7zm3.33 16.02c0 2.8 1.17 4.42 3.59 4.42 2.47 0 3.6-1.62 3.6-4.42v-16.2c0-2.75-1.13-4.41-3.6-4.41-2.42 0-3.6 1.66-3.6 4.42z"/><path id="l" d="M246.91 61.76h-3.03V31.14h4.29l7.01 22.13V31.14h2.99v30.62h-3.5L246.9 37z"/><path id="b" d="M261.15 30.83h13.63v31.24h-13.63z"/><path id="n" d="M274.74 38.49v.83h-3.2v-1c0-2.77-1.04-4.38-3.47-4.38-2.42 0-3.46 1.61-3.46 4.33 0 6.87 10.17 7.52 10.17 16.14 0 4.64-2.2 7.66-6.84 7.66-4.63 0-6.8-3.02-6.8-7.66v-1.75h3.17v1.93c0 2.76 1.12 4.37 3.55 4.37 2.42 0 3.55-1.61 3.55-4.37 0-6.83-10.13-7.48-10.13-16.1 0-4.73 2.16-7.66 6.7-7.66 4.6 0 6.76 3.02 6.76 7.66"/><path id="o" d="M208.4 93.88h-10.65l-1.3 3.55H191l12.07-31.5 12.12 31.5h-5.45zm-9-4.41h7.35l-3.68-10.64z"/><path id="p" d="M234.5 97.43l-7.88-12.77h-2.9v12.77h-5.06V79.58h4.8l-4.8-7.66V66.8h10.08s10.13 0 10.13 8.93c0 5.43-3.73 7.57-6.67 8.4l8.22 13.3zm-5.1-17.9c1.34-.13 4.41-.78 4.41-3.8 0-3.8-5.07-3.8-5.07-3.8h-4.07z"/><path id="q" d="M260.29 71.48h-6.36v25.94h-5.02V71.48h-6.36V66.8h17.74z"/><path id="r" d="M271.1 71.48v21.26h3.55v4.68H262.5v-4.68h3.55V71.48h-3.38V66.8h11.8v4.68z"/><path id="c" d="M278.56 66.36h18.9v31.5h-18.9z"/><path id="t" d="M278.56 88.94h5.06c.09 2.54 2.16 3.8 4.41 3.8 2.34 0 4.42-1.52 4.42-3.93 0-2.58-2.38-4.16-4.42-4.24-.26 0-2.33 0-4.54-1.01a8.2 8.2 0 0 1-4.93-7.83c0-5.82 4.58-9.37 9.47-9.37 5.24 0 9.26 3.6 9.35 8.8h-5.02c-.08-2.54-2.03-3.68-4.33-3.68-2.38 0-4.41 1.4-4.41 4.25 0 2.53 2.16 3.9 4.41 3.9.22 0 2.34 0 4.5 1 3.2 1.48 4.94 4.55 4.94 8.18 0 5.86-4.55 9.06-9.44 9.06-5.23-.13-9.39-3.2-9.47-8.93"/><path id="u" d="M317.12 93.88h-10.65l-1.3 3.55h-5.45l12.08-31.5 12.11 31.5h-5.45zm-9-4.41h7.35l-3.68-10.64z"/><path id="v" d="M352.57 97.42h-5.1L332.4 75.64v21.78h-5.07V66.8h5.11l15.11 21.78V66.8h5.02z"/><path id="d" d="M358.37 66.36h18.9v31.5h-18.9z"/><path id="x" d="M358.37 88.94h5.06c.08 2.54 2.16 3.8 4.41 3.8 2.34 0 4.42-1.52 4.42-3.93 0-2.58-2.38-4.16-4.42-4.24-.26 0-2.33 0-4.54-1.01a8.2 8.2 0 0 1-4.93-7.83c0-5.82 4.58-9.37 9.47-9.37 5.24 0 9.26 3.6 9.35 8.8h-5.02c-.09-2.54-2.03-3.68-4.33-3.68-2.38 0-4.41 1.4-4.41 4.25 0 2.53 2.16 3.9 4.41 3.9.22 0 2.34 0 4.5 1 3.2 1.48 4.94 4.55 4.94 8.18 0 5.86-4.55 9.06-9.44 9.06-5.23-.13-9.39-3.2-9.47-8.93"/><path id="e" d="M191 97.87h186.28V30.83H191z"/><path id="z" d="M191 48.1h14.99v-2.8H191z"/><path id="A" d="M191 61.82h14.99V59H191z"/><clipPath id="j"><use xlink:href="#a"/></clipPath><clipPath id="m"><use xlink:href="#b"/></clipPath><clipPath id="s"><use xlink:href="#c"/></clipPath><clipPath id="w"><use xlink:href="#d"/></clipPath><clipPath id="y"><use xlink:href="#e"/></clipPath></defs><use fill="#fff" xlink:href="#f" transform="translate(-191 -30)"/><use fill="#fff" xlink:href="#g" transform="translate(-191 -30)"/><use fill="#fff" xlink:href="#h" transform="translate(-191 -30)"/><use fill="#fff" xlink:href="#i" transform="translate(-191 -30)"/><g clip-path="url(#j)" transform="translate(-191 -30)"><use fill="#fff" xlink:href="#k"/></g><use fill="#fff" xlink:href="#l" transform="translate(-191 -30)"/><g clip-path="url(#m)" transform="translate(-191 -30)"><use fill="#fff" xlink:href="#n"/></g><use fill="#fff" xlink:href="#o" transform="translate(-191 -30)"/><use fill="#fff" xlink:href="#p" transform="translate(-191 -30)"/><use fill="#fff" xlink:href="#q" transform="translate(-191 -30)"/><use fill="#fff" xlink:href="#r" transform="translate(-191 -30)"/><g clip-path="url(#s)" transform="translate(-191 -30)"><use fill="#fff" xlink:href="#t"/></g><use fill="#fff" xlink:href="#u" transform="translate(-191 -30)"/><use fill="#fff" xlink:href="#v" transform="translate(-191 -30)"/><g clip-path="url(#w)" transform="translate(-191 -30)"><use fill="#fff" xlink:href="#x"/></g><g clip-path="url(#y)" transform="translate(-191 -30)"><use fill="#1b2150" xlink:href="#z"/></g><g clip-path="url(#y)" transform="translate(-191 -30)"><use fill="#e20714" xlink:href="#A"/></g></svg>